<svg width="256" height="256" viewBox="0 0 256 256" fill="none" xmlns="http://www.w3.org/2000/svg" role="img" aria-labelledby="title desc">
  <title id="title">Claim to Fame logo</title>
  <desc id="desc">A crowned receipt with an orange dollar sign inside a black rounded square with an orange border.</desc>
  <rect x="5" y="5" width="246" height="246" rx="50" fill="#050505" stroke="#FF4D00" stroke-width="10"/>
  <path d="M83 64h90c15.5 0 28 12.5 28 28v113.5c0 7.5-8.7 11.6-14.5 6.8l-13.8-11.5-14.2 11.8a9 9 0 0 1-11.6 0l-14.1-11.8-14.1 11.8a9 9 0 0 1-11.6 0L103 200.8l-14.1 11.8a9 9 0 0 1-11.6 0l-13.8-11.5C57.7 205.9 49 201.8 49 194.3V92c0-15.5 12.5-28 28-28h6z" fill="#D9FF3D"/>
  <path d="M94 55h90c15.5 0 28 12.5 28 28v122.5c0 7.5-8.7 11.6-14.5 6.8l-13.8-11.5-14.2 11.8a9 9 0 0 1-11.6 0l-14.1-11.8-14.1 11.8a9 9 0 0 1-11.6 0L114 200.8l-14.1 11.8a9 9 0 0 1-11.6 0l-13.8-11.5C68.7 205.9 60 201.8 60 194.3V83c0-15.5 12.5-28 28-28h6z" fill="#FF9A00"/>
  <path d="M72 46h94c16.6 0 30 13.4 30 30v120.5c0 7.5-8.7 11.6-14.5 6.8l-13.8-11.5-14.2 11.8a9 9 0 0 1-11.6 0l-14.1-11.8-14.1 11.8a9 9 0 0 1-11.6 0L88 191.8l-14.1 11.8a9 9 0 0 1-11.6 0l-13.8-11.5C42.7 196.9 34 192.8 34 185.3V76c0-16.6 13.4-30 30-30h8z" fill="#F6F0E3" stroke="#080808" stroke-width="6"/>
  <path d="M111 38l12.6-20.5a5 5 0 0 1 8.6 0L145 38l21.8-14.3c4-2.6 9.1 1.1 7.7 5.7L164 65H90L79.4 29.4c-1.4-4.6 3.8-8.3 7.8-5.7L111 38z" fill="#FF4D00"/>
  <path d="M134 72v23.5c25.2 3.5 45.4 16.8 46.8 37.5h-35.2c-1.1-7.5-5.8-12.4-11.6-15.2v40.5c30 8.5 50.2 18.9 50.2 45.5 0 25.8-20.8 43.7-50.2 47.4V278h-25v-25.8c-31.8-3.8-52.8-21.8-54.4-48h36.8c1.6 10 7.6 16.3 17.6 19.3v-43.8c-29.4-8.3-49.8-18.3-49.8-44.6 0-24.7 19.3-42.8 49.8-46.3V72h25zm-25 80.4v-33.9c-9.4 2.9-14.4 8.8-14.4 16.3 0 7.7 4.6 12.8 14.4 17.6zm25 35.5v36.4c9.8-3.1 15.6-9.5 15.6-18.1 0-8.2-4.8-13.7-15.6-18.3z" fill="#FF4D00" transform="translate(0 -35)"/>
</svg>
